<svg xmlns="http://www.w3.org/2000/svg" xmlns:xlink="http://www.w3.org/1999/xlink" width="670.5" height="108.149" viewBox="0 0 670.5 108.149">
  <defs>
    <radialGradient id="radial-gradient" cx="0.5" cy="0.5" r="0.5" gradientUnits="objectBoundingBox">
      <stop offset="0" stop-color="#8c979d"/>
      <stop offset="0.517" stop-color="#091216"/>
      <stop offset="1" stop-color="#95776b"/>
    </radialGradient>
  </defs>
  <path id="交差_1" data-name="交差 1" d="M49.35,152.05q-.6-1.35-1.2-2.849L15.75,67.9a21.059,21.059,0,0,0-4.35-6.375A14.462,14.462,0,0,0,4.95,58a18.251,18.251,0,0,1-3.675-1.5A2.134,2.134,0,0,1,0,54.7q0-.9,1.2-1.275a10.834,10.834,0,0,1,3.15-.375q3.451,0,6.525.225T17.7,53.5q4.2,0,7.95-.149t6-.15a10.834,10.834,0,0,1,3.15.375q1.2.375,1.2,1.274A1.83,1.83,0,0,1,34.8,56.5a24.568,24.568,0,0,1-3.75,1.35,3.259,3.259,0,0,0-2.4,1.875,7.853,7.853,0,0,0-.6,3.075,15.533,15.533,0,0,0,.6,4.424q.6,2.025.6,2.025,3.451,8.7,6.3,15.9t5.625,13.875q2.776,6.674,5.85,13.649T53.85,128.2q.751,1.651,1.275,1.5t.975-1.35L67.8,99.4q.451-1.2.675-2.025A5.521,5.521,0,0,0,68.7,95.95a6.37,6.37,0,0,0-.3-1.875q-.3-.975-.9-2.475L58.95,70.3a18.971,18.971,0,0,0-6.15-8.025A23.643,23.643,0,0,0,44.7,58a18.286,18.286,0,0,1-3.676-1.5,2.135,2.135,0,0,1-1.274-1.8q0-.9,1.2-1.275a10.834,10.834,0,0,1,3.15-.375q2.4,0,4.575.15t4.5.225Q55.5,53.5,58.2,53.5q3.449,0,6.375-.149t5.175-.15a10.834,10.834,0,0,1,3.15.375q1.2.375,1.2,1.274a2.228,2.228,0,0,1-1.5,1.95q-1.5.751-3.075,1.65a2.92,2.92,0,0,0-1.575,2.7,2.487,2.487,0,0,0,.075.6,2.963,2.963,0,0,0,.225.6q.3.6,1.125,2.925t1.95,5.175Q72.45,73.3,73.5,75.775T75,79.3q.751,1.8,1.275,1.875T77.7,79.3q1.2-2.7,2.475-6.15t2.25-6.525Q83.4,63.55,83.7,62.35a3.329,3.329,0,0,0,.15-1.05,3.029,3.029,0,0,0-1.35-2.7q-1.35-.9-2.776-1.725A2.372,2.372,0,0,1,78.3,54.85q0-.9,1.2-1.274a10.834,10.834,0,0,1,3.15-.375,43.635,43.635,0,0,1,4.5.15,28.16,28.16,0,0,0,3.3.149,35.715,35.715,0,0,0,4.35-.225,37.442,37.442,0,0,1,4.5-.225,10.83,10.83,0,0,1,3.15.375q1.2.375,1.2,1.275a1.978,1.978,0,0,1-1.2,1.724A15.168,15.168,0,0,1,98.7,57.7q-4.8,1.05-6.525,2.55A20.589,20.589,0,0,0,88.5,64.9q-.749,1.35-2.174,4.5t-3,6.9q-1.574,3.75-2.775,7.05a15.358,15.358,0,0,0-.825,3,5.5,5.5,0,0,0-.075,2.7L95.1,128.8q.3.751.75.45a3.1,3.1,0,0,0,.9-1.35q3.75-9.9,8.475-25.35t9.824-32.7a17.166,17.166,0,0,0,.675-2.775,16.893,16.893,0,0,0,.225-2.625,8.365,8.365,0,0,0-.975-4.05A5.055,5.055,0,0,0,111.45,58a29.044,29.044,0,0,1-3.225-1.2Q106.5,56.051,106.5,55q0-.9,1.2-1.275a10.865,10.865,0,0,1,3.15-.374q3,0,5.475.075t5.325.075q3.749,0,7.2-.225t6.3-.225a10.834,10.834,0,0,1,3.15.375q1.2.375,1.2,1.275a1.977,1.977,0,0,1-1.2,1.724,15.177,15.177,0,0,1-3.75,1.275,12.352,12.352,0,0,0-6.075,3.075,18.737,18.737,0,0,0-3.9,5.1Q123.15,68.65,122.25,70.9L95.7,149.35a10.9,10.9,0,0,1-.9,2.025q-.749,1.426-1.5,1.426-.6,0-1.35-.9a7.9,7.9,0,0,1-1.2-1.95q-3.9-9-6.75-16.125T78.525,119.5Q75.9,112.3,72.3,103.6q-.45-1.05-.75-.825a5.278,5.278,0,0,0-.9,1.725q-3.6,8.55-6.225,15.15T59.25,133.075q-2.55,6.826-5.7,15.675a24.6,24.6,0,0,1-1.5,3.074q-.9,1.575-1.8,1.575Q49.95,153.4,49.35,152.05Zm434.1-2.849a26.927,26.927,0,0,1-9.6-11.475,40.349,40.349,0,0,1-3.45-17.176,31.928,31.928,0,0,1,3.974-15.825A32.423,32.423,0,0,1,484.95,93.25a25.647,25.647,0,0,1,14.4-4.35A22.9,22.9,0,0,1,510,91.3a18.061,18.061,0,0,1,7.275,6.675A18.4,18.4,0,0,1,519.9,107.8q0,4.649-4.5,4.649H483.75a3.4,3.4,0,0,0-2.925,1.125Q480,114.7,480,118a27.518,27.518,0,0,0,3.15,13.125,25.656,25.656,0,0,0,8.4,9.45A20.277,20.277,0,0,0,503.1,144.1a19,19,0,0,0,8.175-1.725,19.553,19.553,0,0,0,6.525-5.025,6.214,6.214,0,0,1,.9-.975,1.215,1.215,0,0,1,.751-.225q1.2,0,1.2,1.5,0,2.851-2.7,6.3a23.236,23.236,0,0,1-5.4,4.95,25.645,25.645,0,0,1-6.9,3.226,27,27,0,0,1-7.8,1.125A25.579,25.579,0,0,1,483.45,149.2Zm6.75-53.925a19.12,19.12,0,0,0-5.7,5.025,9.98,9.98,0,0,0-2.25,6q0,1.5,1.8,1.5H497.7q3.6,0,6.15-.15a39.243,39.243,0,0,0,4.95-.6,1.225,1.225,0,0,0,.976-.975,9.6,9.6,0,0,0-3.6-9.75A14.042,14.042,0,0,0,497.1,93.25,13.527,13.527,0,0,0,490.2,95.275Zm-254.925,54.15a27.07,27.07,0,0,1-9.6-10.5A31.462,31.462,0,0,1,222.15,124a36.778,36.778,0,0,1,4.275-17.7A34.274,34.274,0,0,1,237.9,93.625a29.807,29.807,0,0,1,33,.525A3.7,3.7,0,0,1,272.7,97a4.872,4.872,0,0,1-1.05,2.7,9.224,9.224,0,0,1-2.55,2.475,5.273,5.273,0,0,1-2.85.975,2.6,2.6,0,0,1-1.5-.525Q264,102.1,263.1,101.5a58.3,58.3,0,0,0-7.349-4.8A14.762,14.762,0,0,0,249,94.45q-7.351,0-11.925,6.826T232.5,119.2a26.415,26.415,0,0,0,3.075,12.75,23.9,23.9,0,0,0,8.25,9,20.9,20.9,0,0,0,11.475,3.3,18.076,18.076,0,0,0,7.5-1.426,23.935,23.935,0,0,0,6.75-5.025,2.845,2.845,0,0,1,.75-.525,1.766,1.766,0,0,1,.751-.225q1.65,0,1.65,2.1a4.862,4.862,0,0,1-.525,2.025,13.667,13.667,0,0,1-1.725,2.625,24.57,24.57,0,0,1-12.975,8.4,33.683,33.683,0,0,1-8.625,1.05A24.953,24.953,0,0,1,235.275,149.425ZM139.95,149.2a26.927,26.927,0,0,1-9.6-11.475,40.362,40.362,0,0,1-3.45-17.176,31.919,31.919,0,0,1,3.975-15.825A32.415,32.415,0,0,1,141.45,93.25a25.645,25.645,0,0,1,14.4-4.35,22.9,22.9,0,0,1,10.65,2.4,18.061,18.061,0,0,1,7.275,6.675A18.391,18.391,0,0,1,176.4,107.8q0,4.649-4.5,4.649H140.25a3.4,3.4,0,0,0-2.925,1.125Q136.5,114.7,136.5,118a27.508,27.508,0,0,0,3.15,13.125,25.646,25.646,0,0,0,8.4,9.45A20.279,20.279,0,0,0,159.6,144.1a19,19,0,0,0,8.176-1.725,19.562,19.562,0,0,0,6.525-5.025,6.124,6.124,0,0,1,.9-.975,1.212,1.212,0,0,1,.75-.225q1.2,0,1.2,1.5,0,2.851-2.7,6.3a23.2,23.2,0,0,1-5.4,4.95,25.652,25.652,0,0,1-6.9,3.226,27.011,27.011,0,0,1-7.8,1.125A25.581,25.581,0,0,1,139.95,149.2Zm6.75-53.925A19.106,19.106,0,0,0,141,100.3a9.975,9.975,0,0,0-2.25,6q0,1.5,1.8,1.5H154.2q3.6,0,6.151-.15a39.263,39.263,0,0,0,4.95-.6,1.225,1.225,0,0,0,.975-.975,9.6,9.6,0,0,0-3.6-9.75A14.037,14.037,0,0,0,153.6,93.25,13.53,13.53,0,0,0,146.7,95.275ZM621.45,149.2a29.045,29.045,0,0,1-10.725-10.725,30.275,30.275,0,0,1-3.974-15.525,31.966,31.966,0,0,1,2.475-12.3A37.35,37.35,0,0,1,616.2,99.7a34.479,34.479,0,0,1,10.5-7.875A29.048,29.048,0,0,1,639.6,88.9a29.791,29.791,0,0,1,15.674,4.2,32.113,32.113,0,0,1,11.1,11.025A28.326,28.326,0,0,1,670.5,119.05a37,37,0,0,1-3.825,16.5,31.388,31.388,0,0,1-11.325,12.675q-7.5,4.876-18.751,4.875A29.727,29.727,0,0,1,621.45,149.2Zm8.325-54.375a14.368,14.368,0,0,0-5.925,4.725,19.48,19.48,0,0,0-3.9,9.15,65.657,65.657,0,0,0-.9,10.8,37.048,37.048,0,0,0,2.7,14.025A29.038,29.038,0,0,0,629.1,144.4a15.429,15.429,0,0,0,10.65,4.2,20.822,20.822,0,0,0,9.15-1.95,13.725,13.725,0,0,0,6.3-6.3,24.478,24.478,0,0,0,2.4-8.4,77.585,77.585,0,0,0,.6-9.3,37.59,37.59,0,0,0-2.624-13.875,28.6,28.6,0,0,0-7.35-10.95A16.109,16.109,0,0,0,637.05,93.55,19.657,19.657,0,0,0,629.775,94.825Zm-58.5,53.775q-4.126-4.5-4.125-13.35v-34.8a1.842,1.842,0,0,0-.9-1.725,9.172,9.172,0,0,0-3.9-.525h-.9q-.749,0-1.274-.975a4.215,4.215,0,0,1-.526-2.025,1.823,1.823,0,0,1,.45-.9,9.324,9.324,0,0,1,.6-.751q3-2.1,5.475-4.2t4.5-4.126Q572.7,83.2,574.05,81.55l1.275-1.275a1.739,1.739,0,0,1,1.275-.525,3.473,3.473,0,0,1,1.425.3q.675.3.525,1.35l-.75,6.75a2.249,2.249,0,0,0,.75,2.25,5.255,5.255,0,0,0,2.85.6h17.1q.6,0,1.05.975A5.52,5.52,0,0,1,600,94.3a7.832,7.832,0,0,1-.45,2.624Q599.1,98.2,598.5,98.2H583.65q-3.75,0-4.875.6t-1.125,3.6v29.55q0,6,2.551,9.45a8.58,8.58,0,0,0,7.349,3.45,26.178,26.178,0,0,0,6.75-.675,14.461,14.461,0,0,0,4.351-2.025.863.863,0,0,1,.6-.3.84.84,0,0,1,.825.675,4.468,4.468,0,0,1,.225,1.425q0,.751-2.475,3a27.673,27.673,0,0,1-6.45,4.2,19.309,19.309,0,0,1-8.625,1.95Q575.4,153.1,571.275,148.6Zm-276.375.6a29.039,29.039,0,0,1-10.725-10.725A30.276,30.276,0,0,1,280.2,122.95a31.982,31.982,0,0,1,2.475-12.3A37.387,37.387,0,0,1,289.65,99.7a34.494,34.494,0,0,1,10.5-7.875,29.041,29.041,0,0,1,12.9-2.925,29.794,29.794,0,0,1,15.675,4.2,32.1,32.1,0,0,1,11.1,11.025,28.319,28.319,0,0,1,4.126,14.926,37,37,0,0,1-3.825,16.5A31.39,31.39,0,0,1,328.8,148.225q-7.5,4.876-18.75,4.875A29.727,29.727,0,0,1,294.9,149.2Zm8.325-54.375A14.37,14.37,0,0,0,297.3,99.55a19.488,19.488,0,0,0-3.9,9.15,65.557,65.557,0,0,0-.9,10.8,37.048,37.048,0,0,0,2.7,14.025,29.027,29.027,0,0,0,7.35,10.875,15.429,15.429,0,0,0,10.65,4.2,20.822,20.822,0,0,0,9.15-1.95,13.725,13.725,0,0,0,6.3-6.3,24.459,24.459,0,0,0,2.4-8.4,77.412,77.412,0,0,0,.6-9.3,37.573,37.573,0,0,0-2.625-13.875,28.583,28.583,0,0,0-7.349-10.95A16.109,16.109,0,0,0,310.5,93.55,19.657,19.657,0,0,0,303.225,94.825Zm151.574,56.4q-1.65-.225-3.074-.375t-4.126-.15q-2.55,0-4.2.15t-3.451.375a40.626,40.626,0,0,1-4.8.225,5.309,5.309,0,0,1-2.175-.375,1.3,1.3,0,0,1-.824-1.275,1.655,1.655,0,0,1,.975-1.65,11.258,11.258,0,0,1,2.475-.75,20.253,20.253,0,0,0,4.425-1.651q2.025-1.049,2.025-4.05V110.2a14.775,14.775,0,0,0-1.651-6.825,15.691,15.691,0,0,0-4.35-5.325,9.541,9.541,0,0,0-6-2.1,25.858,25.858,0,0,0-6.975.9A17.239,17.239,0,0,0,417,100q-4.2,3.3-4.2,10.8v30.9q0,3,2.25,4.05a27.233,27.233,0,0,0,4.5,1.651,8.986,8.986,0,0,1,2.475.824A1.691,1.691,0,0,1,423,149.8a1.313,1.313,0,0,1-.75,1.275,5.221,5.221,0,0,1-2.25.375,38.647,38.647,0,0,1-4.725-.225q-1.725-.225-3.3-.375t-4.275-.15q-2.55,0-4.2.15t-3.45.375a40.626,40.626,0,0,1-4.8.225,5.43,5.43,0,0,1-2.1-.375,1.3,1.3,0,0,1-.9-1.275,1.518,1.518,0,0,1,1.125-1.575q1.126-.374,2.326-.824,2.249-.751,4.424-1.725T402.3,141.7V110.2a14.784,14.784,0,0,0-1.65-6.825A15.7,15.7,0,0,0,396.3,98.05a9.541,9.541,0,0,0-6-2.1,25.853,25.853,0,0,0-6.975.9A17.239,17.239,0,0,0,377.25,100q-4.05,3-4.05,10.8v30.9q0,3,2.1,3.975a41.644,41.644,0,0,0,4.35,1.725q1.2.45,2.326.824A1.518,1.518,0,0,1,383.1,149.8a1.3,1.3,0,0,1-.825,1.275,5.309,5.309,0,0,1-2.175.375,38.668,38.668,0,0,1-4.725-.225q-1.724-.225-3.225-.375t-4.2-.15q-2.55,0-4.125.15t-3.3.375a38.647,38.647,0,0,1-4.725.225,6.626,6.626,0,0,1-2.1-.3,1.274,1.274,0,0,1-.9-1.35,1.541,1.541,0,0,1,.975-1.5,19.092,19.092,0,0,1,2.475-.9q2.1-.751,4.275-1.725T362.7,141.7V109.45a25.435,25.435,0,0,0-.9-7.125q-.9-3.074-4.8-3.675a1.8,1.8,0,0,1-.976-.6,2.074,2.074,0,0,1-.374-1.35,1.608,1.608,0,0,1,1.2-1.8,38.284,38.284,0,0,0,6.45-2.174,23.614,23.614,0,0,0,4.275-2.551q1.875-1.424,4.575-3.074a3.956,3.956,0,0,0,.6-.375,1.212,1.212,0,0,1,.75-.225q.9,0,.9,1.05t-.375,4.275a47.92,47.92,0,0,0-.374,5.324,3.125,3.125,0,0,0,.3,1.8h.3a51.519,51.519,0,0,1,9.076-6.674Q388.949,88.9,397.65,88.9a16.271,16.271,0,0,1,9,2.325q3.6,2.325,6,8.025h.45a46.651,46.651,0,0,1,10.95-7.35,30.375,30.375,0,0,1,13.5-3,11.8,11.8,0,0,1,8.249,3,18.984,18.984,0,0,1,5.026,7.8,29.5,29.5,0,0,1,1.724,10.049V141.7q0,3,2.1,3.975A41.493,41.493,0,0,0,459,147.4a19.041,19.041,0,0,1,2.475.9,1.541,1.541,0,0,1,.975,1.5,1.339,1.339,0,0,1-.675,1.275,5.15,5.15,0,0,1-2.325.375A36.765,36.765,0,0,1,454.8,151.225Zm-248.324,0q-1.725-.225-3.3-.375t-4.275-.15q-2.55,0-4.2.15t-3.3.375a36.765,36.765,0,0,1-4.65.225,9.929,9.929,0,0,1-1.875-.225q-1.126-.225-1.125-1.125a1.781,1.781,0,0,1,1.125-1.725q1.125-.525,2.325-.975a41.489,41.489,0,0,0,4.35-1.725q2.1-.975,2.1-3.975V66.1a15.212,15.212,0,0,0-1.575-7.275,7.283,7.283,0,0,0-5.325-3.675q-1.2-.3-1.2-1.95,0-1.5,1.049-1.8a69.287,69.287,0,0,0,6.75-1.875q2.85-.975,5.325-2.025t4.875-1.95a2.3,2.3,0,0,1,.9-.3.634.634,0,0,1,.525.374,1.343,1.343,0,0,1,.225.675q0,1.35-.525,5.775A140.7,140.7,0,0,0,204.15,66.7v75q0,3,2.1,3.975a41.49,41.49,0,0,0,4.35,1.725q1.2.45,2.325.975a1.781,1.781,0,0,1,1.125,1.725q0,.9-1.125,1.125a9.929,9.929,0,0,1-1.875.225A37.058,37.058,0,0,1,206.475,151.225Z" transform="translate(0 -45.25)" fill="url(#radial-gradient)"/>
</svg>
