<svg xmlns="http://www.w3.org/2000/svg" xmlns:xlink="http://www.w3.org/1999/xlink" width="1038.9" height="99.1" viewBox="0 0 1038.9 99.1">
  <defs>
    <radialGradient id="radial-gradient" cx="0.5" cy="0.5" r="0.5" gradientUnits="objectBoundingBox">
      <stop offset="0" stop-color="#8c979d"/>
      <stop offset="0.517" stop-color="#091216"/>
      <stop offset="1" stop-color="#95776b"/>
    </radialGradient>
  </defs>
  <path id="交差_2" data-name="交差 2" d="M699.45,129.25a36.292,36.292,0,0,0-4.55-.25q-1.7,0-2.75.1t-2.15.25a24.437,24.437,0,0,1-3.1.15,7.385,7.385,0,0,1-1.3-.15q-.8-.15-.8-.75a1.188,1.188,0,0,1,.75-1.15q.751-.35,1.55-.65a27.391,27.391,0,0,0,2.9-1.15,2.62,2.62,0,0,0,1.4-2.65V72.3a9.8,9.8,0,0,0-.45-2.4,10.874,10.874,0,0,0-1.45-3.1,3.97,3.97,0,0,0-2.7-1.8.9.9,0,0,1-.6-.5,1.779,1.779,0,0,1-.2-.8,1.421,1.421,0,0,1,.2-.8.975.975,0,0,1,.5-.4,49.735,49.735,0,0,0,6.5-1.949q2.7-1.05,5.1-2.05c.067,0,.1-.017.1-.05s.033-.049.1-.049q.2,0,.4.3a1.077,1.077,0,0,1,.2.6,25.191,25.191,0,0,1-.25,2.85,25.964,25.964,0,0,0-.25,3.15,2.025,2.025,0,0,0,.1.9,19.418,19.418,0,0,1,3.65-2.551,37.884,37.884,0,0,1,6.05-2.8,18.827,18.827,0,0,1,6.5-1.25,14.286,14.286,0,0,1,8.851,2.75,17.873,17.873,0,0,1,5.6,7.1A21.9,21.9,0,0,1,731.3,78.5a23.36,23.36,0,0,1-1.7,8.75,25.1,25.1,0,0,1-4.8,7.65,24.478,24.478,0,0,1-7.2,5.45,19.4,19.4,0,0,1-8.8,2.05,15.277,15.277,0,0,1-3.351-.45,29.444,29.444,0,0,1-3.8-1.15,9.044,9.044,0,0,1-2.85-1.6q-.1,0-.2,1.15t-.149,2.4q-.05,1.25-.05,1.55V123a2.384,2.384,0,0,0,1.05,2.049,7.187,7.187,0,0,0,2.4,1.1q1.35.35,2.35.65.8.3,1.551.65a1.188,1.188,0,0,1,.75,1.15q0,.6-.8.75a7.73,7.73,0,0,1-1.4.15A39.187,39.187,0,0,1,699.45,129.25Zm5.3-64.15a19.88,19.88,0,0,0-4.3,2.25Q698.7,68.6,698.7,69.3q0,2.2-.049,4.45t-.1,4.351q-.05,2.1-.1,3.749T698.4,84.4a15.229,15.229,0,0,0,1.85,7.4,16.494,16.494,0,0,0,4.6,5.45A9.118,9.118,0,0,0,710.3,99.3a9.8,9.8,0,0,0,3.65-.9,14.8,14.8,0,0,0,4.3-2.9,15.622,15.622,0,0,0,3.6-5.4,21.444,21.444,0,0,0,1.45-8.4,23.981,23.981,0,0,0-1.5-9.3,13.612,13.612,0,0,0-3.7-5.3,11.86,11.86,0,0,0-4.5-2.4,15.882,15.882,0,0,0-3.9-.6A13.528,13.528,0,0,0,704.75,65.1ZM429.4,102.1a25.321,25.321,0,0,1,.25-2.949,26.43,26.43,0,0,0,.25-3.25v-.6a25.567,25.567,0,0,1-7.851,5.45,22.207,22.207,0,0,1-8.65,1.651,12.4,12.4,0,0,1-5.8-1.35,9.87,9.87,0,0,1-4.1-4A13.13,13.13,0,0,1,402,90.5V70.2a5.6,5.6,0,0,0-1-3.5,7.5,7.5,0,0,0-3.3-2.2,3.918,3.918,0,0,1-.9-.5,1.3,1.3,0,0,1-.4-1.1,1.349,1.349,0,0,1,.45-1.2,2.651,2.651,0,0,1,1.05-.4,43.948,43.948,0,0,0,5.25-.55Q405,60.4,407.8,59.7a1.588,1.588,0,0,1,.45-.1h.35q1.1,0,1,1.4-.3,2.3-.45,3.85T409,68.7V88.2a8.652,8.652,0,0,0,1.2,4.45A10.1,10.1,0,0,0,413.35,96a7.2,7.2,0,0,0,4.05,1.3,30.305,30.305,0,0,0,4.549-.3,8.732,8.732,0,0,0,3.85-1.7,22.079,22.079,0,0,0,2.8-2.6,6.847,6.847,0,0,0,1.7-4.9V69.5a3.882,3.882,0,0,0-1.25-3.15A7.013,7.013,0,0,0,426.2,64.9a11.263,11.263,0,0,0-2.6-.4,2.94,2.94,0,0,1-1.5-.35,1.429,1.429,0,0,1-.6-1.35,1.189,1.189,0,0,1,.651-1.2,3.419,3.419,0,0,1,1.45-.3q3.1-.1,5.15-.25a27.679,27.679,0,0,0,3.7-.5q1.65-.35,3.45-.85a1.782,1.782,0,0,1,.5-.149,3.148,3.148,0,0,1,.5-.05q1.3,0,1.3,1.1a2.124,2.124,0,0,1-.05.35,4.611,4.611,0,0,1-.149.55,12.015,12.015,0,0,0-.25,1.7q-.15,1.4-.3,2.9t-.15,2.3V91.5a9.658,9.658,0,0,0,.55,3.849q.549,1.15,1.25,1.15.8,0,2.35-.149t2.25-.15a2.677,2.677,0,0,1,1,.2q.5.2.5,1.1a1.151,1.151,0,0,1-.4,1.05,2.714,2.714,0,0,1-1,.35,32.254,32.254,0,0,0-6.7,1.5q-2.8,1-5,1.9-.3.1-.9.35a2.886,2.886,0,0,1-1.1.249Q429.4,102.9,429.4,102.1Zm-335.7,0a25.32,25.32,0,0,1,.25-2.949,26.432,26.432,0,0,0,.25-3.25v-.6a25.567,25.567,0,0,1-7.851,5.45A22.2,22.2,0,0,1,77.7,102.4a12.4,12.4,0,0,1-5.8-1.35,9.87,9.87,0,0,1-4.1-4A13.13,13.13,0,0,1,66.3,90.5V70.2a5.6,5.6,0,0,0-1-3.5A7.5,7.5,0,0,0,62,64.5a3.918,3.918,0,0,1-.9-.5,1.3,1.3,0,0,1-.4-1.1,1.349,1.349,0,0,1,.45-1.2,2.651,2.651,0,0,1,1.05-.4,43.948,43.948,0,0,0,5.25-.55Q69.3,60.4,72.1,59.7a1.588,1.588,0,0,1,.45-.1h.35q1.1,0,1,1.4-.3,2.3-.45,3.85T73.3,68.7V88.2a8.651,8.651,0,0,0,1.2,4.45A10.1,10.1,0,0,0,77.65,96a7.2,7.2,0,0,0,4.05,1.3A30.305,30.305,0,0,0,86.25,97a8.732,8.732,0,0,0,3.85-1.7,22.079,22.079,0,0,0,2.8-2.6,6.847,6.847,0,0,0,1.7-4.9V69.5a3.882,3.882,0,0,0-1.25-3.15A7.012,7.012,0,0,0,90.5,64.9a11.262,11.262,0,0,0-2.6-.4,2.94,2.94,0,0,1-1.5-.35,1.429,1.429,0,0,1-.6-1.35,1.189,1.189,0,0,1,.651-1.2,3.419,3.419,0,0,1,1.45-.3q3.1-.1,5.15-.25a27.678,27.678,0,0,0,3.7-.5q1.65-.35,3.45-.85a1.783,1.783,0,0,1,.5-.149,3.148,3.148,0,0,1,.5-.05q1.3,0,1.3,1.1a2.123,2.123,0,0,1-.05.35,4.614,4.614,0,0,1-.149.55,12.015,12.015,0,0,0-.25,1.7q-.15,1.4-.3,2.9t-.15,2.3V91.5a9.658,9.658,0,0,0,.55,3.849q.549,1.15,1.25,1.15.8,0,2.35-.149T108,96.2a2.677,2.677,0,0,1,1,.2q.5.2.5,1.1a1.151,1.151,0,0,1-.4,1.05,2.714,2.714,0,0,1-1,.35,32.254,32.254,0,0,0-6.7,1.5q-2.8,1-5,1.9-.3.1-.9.35a2.886,2.886,0,0,1-1.1.249Q93.7,102.9,93.7,102.1Zm935.85-1.35a5.375,5.375,0,0,1,0-7.75,5.48,5.48,0,0,1,7.751,7.75,5.375,5.375,0,0,1-7.751,0ZM988.2,99.8a19.361,19.361,0,0,1-7.15-7.15A20.181,20.181,0,0,1,978.4,82.3a21.32,21.32,0,0,1,1.65-8.2,24.941,24.941,0,0,1,4.65-7.3,22.993,22.993,0,0,1,7-5.25,19.357,19.357,0,0,1,8.6-1.95,19.865,19.865,0,0,1,10.451,2.8,21.4,21.4,0,0,1,7.4,7.35,18.879,18.879,0,0,1,2.75,9.95,24.663,24.663,0,0,1-2.55,11,20.928,20.928,0,0,1-7.55,8.45,22.491,22.491,0,0,1-12.5,3.25A19.818,19.818,0,0,1,988.2,99.8Zm5.55-36.25a9.571,9.571,0,0,0-3.95,3.15,12.979,12.979,0,0,0-2.6,6.1,43.67,43.67,0,0,0-.6,7.2,24.707,24.707,0,0,0,1.8,9.35,19.358,19.358,0,0,0,4.9,7.249,10.289,10.289,0,0,0,7.1,2.8,13.883,13.883,0,0,0,6.1-1.3,9.154,9.154,0,0,0,4.2-4.2,16.3,16.3,0,0,0,1.6-5.6,51.716,51.716,0,0,0,.4-6.2,25.064,25.064,0,0,0-1.75-9.25,19.057,19.057,0,0,0-4.9-7.3A10.735,10.735,0,0,0,998.6,62.7,13.092,13.092,0,0,0,993.75,63.55ZM891.7,99.8a19.356,19.356,0,0,1-7.15-7.15A20.179,20.179,0,0,1,881.9,82.3a21.32,21.32,0,0,1,1.65-8.2,24.923,24.923,0,0,1,4.65-7.3,22.994,22.994,0,0,1,7-5.25,19.357,19.357,0,0,1,8.6-1.95,19.859,19.859,0,0,1,10.45,2.8,21.4,21.4,0,0,1,7.4,7.35A18.88,18.88,0,0,1,924.4,79.7a24.663,24.663,0,0,1-2.55,11,20.928,20.928,0,0,1-7.55,8.45,22.491,22.491,0,0,1-12.5,3.25A19.818,19.818,0,0,1,891.7,99.8Zm5.549-36.25A9.574,9.574,0,0,0,893.3,66.7a12.979,12.979,0,0,0-2.6,6.1,43.67,43.67,0,0,0-.6,7.2,24.707,24.707,0,0,0,1.8,9.35,19.357,19.357,0,0,0,4.9,7.249,10.291,10.291,0,0,0,7.1,2.8,13.884,13.884,0,0,0,6.1-1.3,9.154,9.154,0,0,0,4.2-4.2,16.314,16.314,0,0,0,1.6-5.6,51.716,51.716,0,0,0,.4-6.2,25.065,25.065,0,0,0-1.75-9.25,19.067,19.067,0,0,0-4.9-7.3A10.736,10.736,0,0,0,902.1,62.7,13.1,13.1,0,0,0,897.25,63.55ZM828.95,99.4q-2.75-3-2.75-8.9V67.3a1.226,1.226,0,0,0-.6-1.15,6.1,6.1,0,0,0-2.6-.35h-.6c-.334,0-.617-.217-.85-.65a2.817,2.817,0,0,1-.35-1.35,1.222,1.222,0,0,1,.3-.6,6.027,6.027,0,0,1,.4-.5q2-1.4,3.65-2.8t3-2.75q1.35-1.35,2.25-2.45l.85-.851a1.158,1.158,0,0,1,.85-.35,2.321,2.321,0,0,1,.95.2q.45.2.349.9l-.5,4.5a1.5,1.5,0,0,0,.5,1.5,3.5,3.5,0,0,0,1.9.4h11.4q.4,0,.7.65a3.677,3.677,0,0,1,.3,1.55,5.229,5.229,0,0,1-.3,1.75q-.3.849-.7.85h-9.9a8.267,8.267,0,0,0-3.25.4q-.749.4-.75,2.4V88.3a10.389,10.389,0,0,0,1.7,6.3,5.72,5.72,0,0,0,4.9,2.3,17.47,17.47,0,0,0,4.5-.45,9.667,9.667,0,0,0,2.9-1.35.581.581,0,0,1,.4-.2.561.561,0,0,1,.55.45,3,3,0,0,1,.15.95q0,.5-1.651,2a18.454,18.454,0,0,1-4.3,2.8,12.873,12.873,0,0,1-5.749,1.3A9.855,9.855,0,0,1,828.95,99.4Zm-80.851.4a19.361,19.361,0,0,1-7.15-7.15A20.181,20.181,0,0,1,738.3,82.3a21.3,21.3,0,0,1,1.651-8.2,24.92,24.92,0,0,1,4.649-7.3,23,23,0,0,1,7-5.25,19.358,19.358,0,0,1,8.6-1.95,19.864,19.864,0,0,1,10.45,2.8,21.405,21.405,0,0,1,7.4,7.35,18.881,18.881,0,0,1,2.75,9.95,24.664,24.664,0,0,1-2.551,11,20.928,20.928,0,0,1-7.55,8.45,22.489,22.489,0,0,1-12.5,3.25A19.82,19.82,0,0,1,748.1,99.8Zm5.55-36.25a9.571,9.571,0,0,0-3.95,3.15,13,13,0,0,0-2.6,6.1,43.769,43.769,0,0,0-.6,7.2,24.707,24.707,0,0,0,1.8,9.35,19.37,19.37,0,0,0,4.9,7.249,10.289,10.289,0,0,0,7.1,2.8,13.88,13.88,0,0,0,6.1-1.3,9.154,9.154,0,0,0,4.2-4.2,16.3,16.3,0,0,0,1.6-5.6,51.716,51.716,0,0,0,.4-6.2,25.065,25.065,0,0,0-1.75-9.25,19.056,19.056,0,0,0-4.9-7.3A10.739,10.739,0,0,0,758.5,62.7,13.092,13.092,0,0,0,753.65,63.55ZM639.2,101.45a13.538,13.538,0,0,1-4.6-2.65,12.74,12.74,0,0,1-.75-3.7q-.25-2.6-.35-4.3,0-.9,1.3-.9a1.873,1.873,0,0,1,.751.15.76.76,0,0,1,.45.55q1.3,4.9,4.15,7a9.637,9.637,0,0,0,5.75,2.1,6.922,6.922,0,0,0,4.95-1.95A6.422,6.422,0,0,0,652.9,92.9a6.616,6.616,0,0,0-1.8-4.649,32.011,32.011,0,0,0-6.3-4.75,38.184,38.184,0,0,1-5.5-4,12.751,12.751,0,0,1-3.05-3.9,10.367,10.367,0,0,1-.95-4.5,11.385,11.385,0,0,1,1.5-5.8,10.689,10.689,0,0,1,4.5-4.151,16.239,16.239,0,0,1,7.5-1.55,17.656,17.656,0,0,1,5,.6,10.794,10.794,0,0,1,3,1.3,9.875,9.875,0,0,1,1.35,3.451,19.567,19.567,0,0,1,.55,4.45q0,.7-1,.7a2.749,2.749,0,0,1-1.15-.25,1.472,1.472,0,0,1-.75-.65,13.108,13.108,0,0,0-3.25-5.05,6.992,6.992,0,0,0-4.85-1.75,7.106,7.106,0,0,0-4.451,1.5,5.211,5.211,0,0,0-1.949,4.4,6.355,6.355,0,0,0,1.45,4.1,20.053,20.053,0,0,0,5.45,4.1,41.454,41.454,0,0,1,8.65,6.15,10.207,10.207,0,0,1,2.85,7.55,10.9,10.9,0,0,1-4.1,8.8,16.052,16.052,0,0,1-10.6,3.4A17.346,17.346,0,0,1,639.2,101.45ZM593.5,97.2h-.3a25.869,25.869,0,0,1-6.3,3.95,15.967,15.967,0,0,1-6.2,1.25,6.06,6.06,0,0,1-3.65-1.4,12.58,12.58,0,0,1-3.1-3.4,7.213,7.213,0,0,1-1.25-3.8,6.992,6.992,0,0,1,1.7-5,15.338,15.338,0,0,1,5.4-3.3L590,81.3a5.237,5.237,0,0,0,2.35-1.4,6.793,6.793,0,0,0,.45-2.6l.2-6.4a6.482,6.482,0,0,0-1.45-4.5,5.412,5.412,0,0,0-4.451-1.9,9.444,9.444,0,0,0-3,.5,8.039,8.039,0,0,0-2.5,1.3,1.94,1.94,0,0,0-.8,1.2,7,7,0,0,0-.2,1.7c0,.266.017.567.05.9s.049.634.049.9q0,.5-1.25,1.35a15.91,15.91,0,0,1-2.8,1.5,6.956,6.956,0,0,1-2.55.65,1.21,1.21,0,0,1-.8-.25.806.806,0,0,1-.3-.65,7.067,7.067,0,0,1,1.049-3.451A12.836,12.836,0,0,1,577,66.7a30.344,30.344,0,0,1,5-3.7,29.153,29.153,0,0,1,5.3-2.5,14.315,14.315,0,0,1,4.6-.9,7.742,7.742,0,0,1,5.95,2.551A8.654,8.654,0,0,1,600.1,68.5l-.5,24a4.858,4.858,0,0,0,.95,3.4,3.266,3.266,0,0,0,2.65,1.3,5.334,5.334,0,0,0,3.7-1.1q.5-.5.8-.5a1.033,1.033,0,0,1,1.1,1.1,3.169,3.169,0,0,1-1.1,2.2,13.776,13.776,0,0,1-3.45,2.55,7.607,7.607,0,0,1-3.45.95Q596.2,102.4,593.5,97.2Zm-2.3-13a8.89,8.89,0,0,0-1.3.4q-5.3,1.9-7.349,3.95T580.5,92.3a4.955,4.955,0,0,0,1.55,3.949,5.009,5.009,0,0,0,3.35,1.35,8.027,8.027,0,0,0,3.4-.65,8.669,8.669,0,0,0,2.5-1.75,4.094,4.094,0,0,0,.85-1.35,9.062,9.062,0,0,0,.45-2.75l.2-4.9a3.738,3.738,0,0,0-.1-1.6.78.78,0,0,0-.8-.5A4.137,4.137,0,0,0,591.2,84.2Zm-71,13h-.3a25.887,25.887,0,0,1-6.3,3.95,15.974,15.974,0,0,1-6.2,1.25,6.062,6.062,0,0,1-3.65-1.4,12.592,12.592,0,0,1-3.1-3.4,7.214,7.214,0,0,1-1.25-3.8,6.992,6.992,0,0,1,1.7-5,15.339,15.339,0,0,1,5.4-3.3l10.2-4.2a5.225,5.225,0,0,0,2.35-1.4,6.793,6.793,0,0,0,.45-2.6l.2-6.4a6.482,6.482,0,0,0-1.45-4.5,5.41,5.41,0,0,0-4.45-1.9,9.444,9.444,0,0,0-3,.5,8.029,8.029,0,0,0-2.5,1.3,1.937,1.937,0,0,0-.8,1.2,7,7,0,0,0-.2,1.7c0,.266.016.567.049.9s.05.634.05.9q0,.5-1.25,1.35a15.911,15.911,0,0,1-2.8,1.5,6.96,6.96,0,0,1-2.551.65,1.208,1.208,0,0,1-.8-.25.8.8,0,0,1-.3-.65,7.06,7.06,0,0,1,1.05-3.451,12.82,12.82,0,0,1,2.95-3.45,30.3,30.3,0,0,1,5-3.7,29.154,29.154,0,0,1,5.3-2.5,14.323,14.323,0,0,1,4.6-.9,7.74,7.74,0,0,1,5.95,2.551A8.654,8.654,0,0,1,526.8,68.5l-.5,24a4.862,4.862,0,0,0,.949,3.4,3.268,3.268,0,0,0,2.651,1.3,5.334,5.334,0,0,0,3.7-1.1,1.367,1.367,0,0,1,.8-.5,1.033,1.033,0,0,1,1.1,1.1,3.169,3.169,0,0,1-1.1,2.2,13.761,13.761,0,0,1-3.451,2.55,7.6,7.6,0,0,1-3.45.95Q522.9,102.4,520.2,97.2Zm-2.3-13a8.884,8.884,0,0,0-1.3.4q-5.3,1.9-7.35,3.95T507.2,92.3a4.955,4.955,0,0,0,1.55,3.949,5.009,5.009,0,0,0,3.35,1.35,8.03,8.03,0,0,0,3.4-.65A8.67,8.67,0,0,0,518,95.2a4.1,4.1,0,0,0,.85-1.35,9.092,9.092,0,0,0,.45-2.75l.2-4.9a3.738,3.738,0,0,0-.1-1.6.779.779,0,0,0-.8-.5A4.161,4.161,0,0,0,517.9,84.2ZM467.7,102q-2.2-.4-4.2-.9-2.2-.6-3.85-1.1a9.948,9.948,0,0,0-2.15-.5,1.927,1.927,0,0,0-1.149.4,8.771,8.771,0,0,0-1.05.9,1.382,1.382,0,0,1-.9.5,1.626,1.626,0,0,1-.9-.35,1.019,1.019,0,0,1-.5-.851,23.065,23.065,0,0,1,.35-3.1,26.225,26.225,0,0,0,.35-4.1V44.4a7.774,7.774,0,0,0-1.3-4.5,7.864,7.864,0,0,0-3.3-2.8,5.185,5.185,0,0,1-.85-.55,1.137,1.137,0,0,1-.45-.95.716.716,0,0,1,.4-.7,3.969,3.969,0,0,1,.8-.3,34.276,34.276,0,0,0,3.55-1.1q2.25-.8,4.251-1.6t2.7-1.1a2.3,2.3,0,0,1,.9-.3.576.576,0,0,1,.4.2.678.678,0,0,1,.2.5q0,.4-.149,3.35t-.15,7.15V62.2a10.417,10.417,0,0,0,.2,2.55.953.953,0,0,0,.7.751,26.492,26.492,0,0,1,7.2-4.25,20.067,20.067,0,0,1,7.4-1.651,16.572,16.572,0,0,1,9.15,2.6,18.811,18.811,0,0,1,6.449,7.05,20.831,20.831,0,0,1,2.4,10.05,25.216,25.216,0,0,1-2.8,12.05,20.3,20.3,0,0,1-7.75,8.15,22.433,22.433,0,0,1-11.55,2.9A24.486,24.486,0,0,1,467.7,102Zm-1.8-36.9a18.723,18.723,0,0,0-5.2,3.3V87.8a9.88,9.88,0,0,0,1.95,6.1,12.673,12.673,0,0,0,5.1,4,16.2,16.2,0,0,0,6.65,1.4,9.752,9.752,0,0,0,6.55-2.35,15.107,15.107,0,0,0,4.25-6.4,25.9,25.9,0,0,0,1.5-9.049,23.916,23.916,0,0,0-1.45-8,16.8,16.8,0,0,0-4.5-6.9,11.156,11.156,0,0,0-7.851-2.8A17.485,17.485,0,0,0,465.9,65.1Zm-96.1,36.35a13.539,13.539,0,0,1-4.6-2.65,12.733,12.733,0,0,1-.751-3.7q-.25-2.6-.349-4.3,0-.9,1.3-.9a1.869,1.869,0,0,1,.75.15.758.758,0,0,1,.45.55q1.3,4.9,4.15,7a9.639,9.639,0,0,0,5.75,2.1,6.92,6.92,0,0,0,4.95-1.95,6.419,6.419,0,0,0,2.05-4.85,6.62,6.62,0,0,0-1.8-4.649,32.04,32.04,0,0,0-6.3-4.75,38.188,38.188,0,0,1-5.5-4,12.737,12.737,0,0,1-3.05-3.9,10.354,10.354,0,0,1-.949-4.5,11.393,11.393,0,0,1,1.5-5.8,10.694,10.694,0,0,1,4.5-4.151,16.241,16.241,0,0,1,7.5-1.55,17.656,17.656,0,0,1,5,.6,10.774,10.774,0,0,1,3,1.3,9.839,9.839,0,0,1,1.35,3.451,19.521,19.521,0,0,1,.551,4.45q0,.7-1,.7a2.748,2.748,0,0,1-1.149-.25,1.47,1.47,0,0,1-.751-.65,13.1,13.1,0,0,0-3.25-5.05,6.99,6.99,0,0,0-4.85-1.75,7.1,7.1,0,0,0-4.45,1.5,5.21,5.21,0,0,0-1.95,4.4,6.355,6.355,0,0,0,1.45,4.1,20.061,20.061,0,0,0,5.45,4.1,41.454,41.454,0,0,1,8.65,6.15,10.207,10.207,0,0,1,2.85,7.55,10.9,10.9,0,0,1-4.1,8.8,16.053,16.053,0,0,1-10.6,3.4A17.344,17.344,0,0,1,369.8,101.45ZM341.05,99.4q-2.75-3-2.75-8.9V67.3a1.226,1.226,0,0,0-.6-1.15,6.1,6.1,0,0,0-2.6-.35h-.6q-.5,0-.85-.65a2.817,2.817,0,0,1-.35-1.35,1.214,1.214,0,0,1,.3-.6,6.048,6.048,0,0,1,.4-.5q2-1.4,3.65-2.8t3-2.75Q342,55.8,342.9,54.7l.85-.851a1.16,1.16,0,0,1,.85-.35,2.314,2.314,0,0,1,.95.2q.451.2.35.9l-.5,4.5a1.5,1.5,0,0,0,.5,1.5,3.5,3.5,0,0,0,1.9.4h11.4q.4,0,.7.65a3.676,3.676,0,0,1,.3,1.55,5.229,5.229,0,0,1-.3,1.75q-.3.849-.7.85h-9.9a8.266,8.266,0,0,0-3.25.4q-.751.4-.75,2.4V88.3a10.39,10.39,0,0,0,1.7,6.3,5.72,5.72,0,0,0,4.9,2.3,17.47,17.47,0,0,0,4.5-.45,9.666,9.666,0,0,0,2.9-1.35.577.577,0,0,1,.4-.2.561.561,0,0,1,.55.45,2.994,2.994,0,0,1,.149.95q0,.5-1.65,2a18.455,18.455,0,0,1-4.3,2.8,12.876,12.876,0,0,1-5.75,1.3A9.856,9.856,0,0,1,341.05,99.4ZM314.4,97.2h-.3a25.87,25.87,0,0,1-6.3,3.95,15.971,15.971,0,0,1-6.2,1.25,6.06,6.06,0,0,1-3.65-1.4,12.581,12.581,0,0,1-3.1-3.4,7.214,7.214,0,0,1-1.25-3.8,6.992,6.992,0,0,1,1.7-5,15.339,15.339,0,0,1,5.4-3.3l10.2-4.2a5.236,5.236,0,0,0,2.351-1.4,6.811,6.811,0,0,0,.45-2.6l.2-6.4a6.482,6.482,0,0,0-1.45-4.5A5.413,5.413,0,0,0,308,64.5a9.444,9.444,0,0,0-3,.5,8.039,8.039,0,0,0-2.5,1.3,1.94,1.94,0,0,0-.8,1.2,7,7,0,0,0-.2,1.7c0,.266.017.567.05.9s.049.634.049.9q0,.5-1.25,1.35a15.91,15.91,0,0,1-2.8,1.5,6.96,6.96,0,0,1-2.55.65,1.209,1.209,0,0,1-.8-.25.806.806,0,0,1-.3-.65,7.058,7.058,0,0,1,1.049-3.451,12.836,12.836,0,0,1,2.95-3.45,30.345,30.345,0,0,1,5-3.7,29.174,29.174,0,0,1,5.3-2.5,14.324,14.324,0,0,1,4.6-.9,7.742,7.742,0,0,1,5.95,2.551A8.658,8.658,0,0,1,321,68.5l-.5,24a4.858,4.858,0,0,0,.95,3.4,3.265,3.265,0,0,0,2.65,1.3,5.334,5.334,0,0,0,3.7-1.1q.5-.5.8-.5a1.033,1.033,0,0,1,1.1,1.1,3.169,3.169,0,0,1-1.1,2.2,13.775,13.775,0,0,1-3.45,2.55,7.607,7.607,0,0,1-3.451.95Q317.1,102.4,314.4,97.2Zm-2.3-13a8.856,8.856,0,0,0-1.3.4q-5.3,1.9-7.349,3.95T301.4,92.3a4.955,4.955,0,0,0,1.55,3.949,5.009,5.009,0,0,0,3.35,1.35,8.027,8.027,0,0,0,3.4-.65,8.67,8.67,0,0,0,2.5-1.75,4.094,4.094,0,0,0,.85-1.35,9.062,9.062,0,0,0,.45-2.75l.2-4.9a3.721,3.721,0,0,0-.1-1.6.778.778,0,0,0-.8-.5A4.136,4.136,0,0,0,312.1,84.2Zm-145.7,13h-.3a25.887,25.887,0,0,1-6.3,3.95,15.974,15.974,0,0,1-6.2,1.25,6.06,6.06,0,0,1-3.65-1.4,12.592,12.592,0,0,1-3.1-3.4,7.214,7.214,0,0,1-1.25-3.8,6.988,6.988,0,0,1,1.7-5,15.339,15.339,0,0,1,5.4-3.3l10.2-4.2a5.231,5.231,0,0,0,2.35-1.4,6.793,6.793,0,0,0,.45-2.6l.2-6.4a6.482,6.482,0,0,0-1.45-4.5A5.41,5.41,0,0,0,160,64.5a9.454,9.454,0,0,0-3,.5,8.024,8.024,0,0,0-2.5,1.3,1.937,1.937,0,0,0-.8,1.2,7,7,0,0,0-.2,1.7c0,.266.016.567.049.9s.05.634.05.9q0,.5-1.25,1.35a15.912,15.912,0,0,1-2.8,1.5A6.96,6.96,0,0,1,147,74.5a1.213,1.213,0,0,1-.8-.25.806.806,0,0,1-.3-.65,7.06,7.06,0,0,1,1.05-3.451,12.82,12.82,0,0,1,2.95-3.45,30.3,30.3,0,0,1,5-3.7,29.153,29.153,0,0,1,5.3-2.5,14.324,14.324,0,0,1,4.6-.9,7.741,7.741,0,0,1,5.95,2.551A8.654,8.654,0,0,1,173,68.5l-.5,24a4.858,4.858,0,0,0,.949,3.4,3.266,3.266,0,0,0,2.651,1.3,5.334,5.334,0,0,0,3.7-1.1q.5-.5.8-.5a1.033,1.033,0,0,1,1.1,1.1,3.173,3.173,0,0,1-1.1,2.2,13.779,13.779,0,0,1-3.451,2.55,7.6,7.6,0,0,1-3.45.95Q169.1,102.4,166.4,97.2Zm-2.3-13a8.851,8.851,0,0,0-1.3.4q-5.3,1.9-7.35,3.95T153.4,92.3a4.956,4.956,0,0,0,1.551,3.949,5.009,5.009,0,0,0,3.35,1.35,8.03,8.03,0,0,0,3.4-.65,8.653,8.653,0,0,0,2.5-1.75,4.081,4.081,0,0,0,.851-1.35,9.092,9.092,0,0,0,.45-2.75l.2-4.9a3.739,3.739,0,0,0-.1-1.6.779.779,0,0,0-.8-.5A4.161,4.161,0,0,0,164.1,84.2ZM121.75,99.4q-2.75-3-2.75-8.9V67.3a1.227,1.227,0,0,0-.6-1.15,6.11,6.11,0,0,0-2.6-.35h-.6q-.5,0-.85-.65A2.807,2.807,0,0,1,114,63.8a1.218,1.218,0,0,1,.3-.6,6.046,6.046,0,0,1,.4-.5q2-1.4,3.65-2.8t3-2.75q1.35-1.35,2.25-2.45l.851-.851a1.157,1.157,0,0,1,.85-.35,2.318,2.318,0,0,1,.95.2q.45.2.35.9l-.5,4.5a1.5,1.5,0,0,0,.5,1.5,3.5,3.5,0,0,0,1.9.4h11.4q.4,0,.7.65a3.676,3.676,0,0,1,.3,1.55,5.229,5.229,0,0,1-.3,1.75q-.3.849-.7.85H130a8.27,8.27,0,0,0-3.25.4q-.749.4-.75,2.4V88.3a10.4,10.4,0,0,0,1.7,6.3,5.72,5.72,0,0,0,4.9,2.3,17.47,17.47,0,0,0,4.5-.45A9.661,9.661,0,0,0,140,95.1a.577.577,0,0,1,.4-.2.56.56,0,0,1,.55.45,2.994,2.994,0,0,1,.15.95q0,.5-1.651,2a18.447,18.447,0,0,1-4.3,2.8,12.879,12.879,0,0,1-5.75,1.3A9.855,9.855,0,0,1,121.75,99.4Zm119.35,2q-3.9-11.7-8.35-23.05T222.7,53.9a.709.709,0,0,0-.7-.5.557.557,0,0,0-.6.5q-.9,7-1.65,12.85T218.6,78.3q-.4,5.7-.4,12.5a8.029,8.029,0,0,0,1.7,4.95,7.565,7.565,0,0,0,4.8,2.85,9.723,9.723,0,0,1,2.5.7,1.22,1.22,0,0,1,.8,1.1q0,.6-.8.85a7.226,7.226,0,0,1-2.1.25,40,40,0,0,1-4.05-.15q-1.35-.15-2.4-.25T215.7,101q-1.8,0-2.8.1t-2.3.25a38.415,38.415,0,0,1-4,.15,7.237,7.237,0,0,1-2.1-.25q-.8-.25-.8-.85a1.222,1.222,0,0,1,.8-1.1,9.743,9.743,0,0,1,2.5-.7,7,7,0,0,0,4.1-2.4,10.571,10.571,0,0,0,2.1-5.4q1.2-9,2.1-17.15t1.45-14.7q.551-6.55.55-10.75V46.5a11.423,11.423,0,0,0-.1-1.6,15.7,15.7,0,0,0-.3-1.65,3.133,3.133,0,0,0-1.2-1.651,10.761,10.761,0,0,0-3.5-2.05,29.61,29.61,0,0,0-4-.95,3.258,3.258,0,0,1-1.6-.75,1.66,1.66,0,0,1-.6-1.25q0-.8.949-.95a16.278,16.278,0,0,1,2.451-.15q1,0,3.05.1t4.45.3q2.4.2,4.45.3t3.05.1a1.86,1.86,0,0,1,1.2.4,2.143,2.143,0,0,1,.7,1.2q.5,1.8,1,3.8a37.6,37.6,0,0,0,1.2,3.9l15.8,40.1a1.4,1.4,0,0,0,1.1.851,1.045,1.045,0,0,0,1.2-.55l19.7-41q.5-1.7,1-3.8t.8-3.7q.3-1.3,1-1.3h3.6a53.73,53.73,0,0,0,6.35-.4,46.366,46.366,0,0,1,5.05-.4,7.385,7.385,0,0,1,1.3.15q.8.15.8.85a1.288,1.288,0,0,1-.55,1.1,10.622,10.622,0,0,1-2.05,1q-1.3.5-2.9,1.1t-3,1.2a3.9,3.9,0,0,0-1.7,1.35,3.386,3.386,0,0,0-.7,2.05q0,7,.25,13.15t.55,11.8q.3,5.651.7,11.15t.7,11.2a6.741,6.741,0,0,0,2,4.749A11.1,11.1,0,0,0,285,98.6a9.724,9.724,0,0,1,2.5.7,1.22,1.22,0,0,1,.8,1.1q0,.6-.8.85a7.226,7.226,0,0,1-2.1.25q-2.7,0-4.45-.15t-3.351-.25q-1.6-.1-3.9-.1-2,0-3.35.1t-2.9.25q-1.551.15-4.251.15a7.231,7.231,0,0,1-2.1-.25q-.8-.25-.8-.85a1.318,1.318,0,0,1,.8-1.15,7,7,0,0,1,2.5-.65,5.4,5.4,0,0,0,4-2.05,9.459,9.459,0,0,0,1.1-5.15q0-7.2-.15-13t-.45-11.45q-.3-5.65-.6-12.35-.1-1.1-.6-1.05t-1,1.05l-23,46.9a.938.938,0,0,1-.9.55q-.047,0-.091,0A.788.788,0,0,1,241.1,101.4Zm-202.85-.05q-1.75-.15-3.35-.25T31,101q-2.5,0-4.35.1t-3.8.25q-1.951.15-4.65.15a7.226,7.226,0,0,1-2.1-.25q-.8-.25-.8-.85a1.22,1.22,0,0,1,.8-1.1,9.721,9.721,0,0,1,2.5-.7,10.53,10.53,0,0,0,5.8-2.75,7.745,7.745,0,0,0,2-5.65V75.4A10.752,10.752,0,0,0,25.35,71.05Q24.3,68.7,23.9,68L12.2,48.8q-.7-1.2-2.2-3.35A38.351,38.351,0,0,0,6.75,41.4,7.952,7.952,0,0,0,3.3,39,12.124,12.124,0,0,1,.85,38,1.423,1.423,0,0,1,0,36.8q0-.6.8-.851A7.23,7.23,0,0,1,2.9,35.7q2.3,0,5.3.149t6.4.15q2.3,0,4.351-.1t3.649-.1a7.2,7.2,0,0,1,2.1.25q.8.25.8.85a1.319,1.319,0,0,1-.8,1.15,10.121,10.121,0,0,1-2.5.85,11.1,11.1,0,0,0-2.3.9,1.7,1.7,0,0,0-.9,1.6A8.145,8.145,0,0,0,20.3,45l9.2,17q2,3.8,2.8,3.8a1.867,1.867,0,0,0,1.3-.85,29.9,29.9,0,0,0,2-2.95q2.3-3.5,4.1-6.7T44,47.6a15.115,15.115,0,0,0,1.4-2.95,7.221,7.221,0,0,0,.4-2.15,2.659,2.659,0,0,0-1.35-2.6A8.6,8.6,0,0,0,41.7,39a9.252,9.252,0,0,1-2.15-.75Q38.4,37.7,38.4,37q0-.6.8-.85a7.2,7.2,0,0,1,2.1-.25q2.3,0,3.8.049t3.7.05q3.1,0,5.9-.15t4.5-.149a7.23,7.23,0,0,1,2.1.249q.8.251.8.851,0,.7-1.6,1.3t-3.7,1.2a8.262,8.262,0,0,0-4.35,2.849Q50.7,44.3,48,48.4q-2,3.1-3.35,5.2t-2.5,3.9Q41,59.3,39.8,61.25T36.9,66a21.83,21.83,0,0,0-1.8,3.4,9.049,9.049,0,0,0-.6,2.45Q34.4,73,34.4,75V90.2a7.608,7.608,0,0,0,2.1,5.55,10.62,10.62,0,0,0,5.8,2.85,9.743,9.743,0,0,1,2.5.7,1.222,1.222,0,0,1,.8,1.1q0,.6-.8.85a7.237,7.237,0,0,1-2.1.25Q40,101.5,38.25,101.35Zm929.7-.2q-1.15-.15-2.2-.25t-2.85-.1q-1.7,0-2.8.1t-2.2.25a24.423,24.423,0,0,1-3.1.15,3.541,3.541,0,0,1-1.45-.25.867.867,0,0,1-.55-.851,1.1,1.1,0,0,1,.75-1.1,12.063,12.063,0,0,1,1.55-.5,9.843,9.843,0,0,0,3.2-1.25,2.862,2.862,0,0,0,1.1-2.551V73.1a11.523,11.523,0,0,0-.95-4.8,4.312,4.312,0,0,0-3.55-2.5,1.259,1.259,0,0,1-.75-.4,1.378,1.378,0,0,1-.25-.9q0-1.1.9-1.2a22.588,22.588,0,0,0,6.6-2.45,42.262,42.262,0,0,0,3.9-2.55,2.67,2.67,0,0,1,1.4-.7q.6,0,.6.5,0,.8-.25,3.15t-.45,5.2q-.2,2.85-.2,5.151V94.8a2.832,2.832,0,0,0,1.15,2.5,9.628,9.628,0,0,0,3.15,1.3,12.069,12.069,0,0,1,1.55.5,1.1,1.1,0,0,1,.75,1.1q0,1.1-2,1.1A24.642,24.642,0,0,1,967.95,101.15Zm-24.5,0q-1.15-.15-2.2-.25t-2.849-.1q-1.7,0-2.8.1t-2.2.25a24.431,24.431,0,0,1-3.1.15,6.6,6.6,0,0,1-1.25-.15q-.751-.15-.751-.75a1.187,1.187,0,0,1,.751-1.15q.749-.35,1.55-.65a27.847,27.847,0,0,0,2.9-1.15,2.622,2.622,0,0,0,1.4-2.65V44.4a10.137,10.137,0,0,0-1.05-4.85,4.858,4.858,0,0,0-3.55-2.45q-.8-.2-.8-1.3,0-1,.7-1.2a46.241,46.241,0,0,0,4.5-1.249q1.9-.651,3.55-1.35t3.25-1.3a1.536,1.536,0,0,1,.6-.2.421.421,0,0,1,.35.25.9.9,0,0,1,.149.45q0,.9-.35,3.849A94,94,0,0,0,941.9,44.8v50a2.622,2.622,0,0,0,1.4,2.65,27.847,27.847,0,0,0,2.9,1.15q.8.3,1.551.65a1.188,1.188,0,0,1,.75,1.15q0,.6-.75.75a6.613,6.613,0,0,1-1.25.15A24.643,24.643,0,0,1,943.45,101.15Zm-76.75-.1a45.47,45.47,0,0,0-4.9-.25q-1.7,0-2.8.1t-2.3.25a27.018,27.018,0,0,1-3.2.15,3.482,3.482,0,0,1-1.5-.25.874.874,0,0,1-.5-.851,1.1,1.1,0,0,1,.65-1.1,7.518,7.518,0,0,1,1.651-.5,6.934,6.934,0,0,0,3.3-1.451,3.9,3.9,0,0,0,1-2.949V66q-1,0-2.3-.049t-2.9-.15a2.551,2.551,0,0,1-.851-.7,1.719,1.719,0,0,1-.55-1.1q0-.2.3-.35a1.642,1.642,0,0,0,.4-.25q1.8-.9,3.1-1.6t2.8-1.4a42.114,42.114,0,0,1,2.15-14.5,25.167,25.167,0,0,1,5.55-9.2,20.65,20.65,0,0,1,7.2-4.85,19.99,19.99,0,0,1,7.1-1.45q5.6,0,8.3,1.7a4.989,4.989,0,0,1,2.7,4.3,4.075,4.075,0,0,1-1,3,3.273,3.273,0,0,1-2.4,1,2.369,2.369,0,0,1-1.65-.7q-.751-.7-1.75-1.6a16.827,16.827,0,0,0-3.2-2.45,10.02,10.02,0,0,0-5.2-1.15,9.289,9.289,0,0,0-7.75,4.1q-3.05,4.1-3.05,12.6V60a.843.843,0,0,0,.35.8,1.487,1.487,0,0,0,.75.2h12.5a1.462,1.462,0,0,1,.9.3.95.95,0,0,1,.4.8,8.174,8.174,0,0,1-.15,1.5,5.314,5.314,0,0,1-.45,1.4q-.3.8-.9.8H867a2.328,2.328,0,0,0-1.55.35,1.284,1.284,0,0,0-.35.95V94.2a3.409,3.409,0,0,0,1.3,2.949q1.3.95,5.3,1.451,2.3.3,2.3,1.6a.875.875,0,0,1-.5.851,3.487,3.487,0,0,1-1.5.25A49.665,49.665,0,0,1,866.7,101.05Zm-65.25,0a27.268,27.268,0,0,0-4.15-.25q-1.7,0-2.75.1t-2.2.25a25.71,25.71,0,0,1-3.15.15,3.486,3.486,0,0,1-1.5-.25.875.875,0,0,1-.5-.851,1.016,1.016,0,0,1,.6-1.049,14.582,14.582,0,0,1,1.7-.55,6.193,6.193,0,0,0,2.85-1.451,3.189,3.189,0,0,0,.95-2.35V73.3a12.626,12.626,0,0,0-.8-4.7,4.127,4.127,0,0,0-3.3-2.5,1.259,1.259,0,0,1-.7-.5,1.331,1.331,0,0,1-.3-.8,1.086,1.086,0,0,1,.9-1.2,29.907,29.907,0,0,0,5.45-2.35Q797.4,59.7,799,58.7a6.47,6.47,0,0,1,.949-.55,1.525,1.525,0,0,1,.55-.15q.5,0,.5.7,0,.3-.05,1.5t-.1,2.8q-.05,1.6-.149,3.2a.177.177,0,0,0,.2.2,20.708,20.708,0,0,1,3.55-3.5,19.31,19.31,0,0,1,4-2.4,9.816,9.816,0,0,1,3.95-.9,6.1,6.1,0,0,1,3.45.9,2.682,2.682,0,0,1,1.35,2.3,5.338,5.338,0,0,1-.55,2.2,7.186,7.186,0,0,1-1.45,2.1,2.68,2.68,0,0,1-1.9.9,3.891,3.891,0,0,1-1.3-.25,13.639,13.639,0,0,1-1.5-.65l-1.6-.6a4.534,4.534,0,0,0-1.6-.3,7.63,7.63,0,0,0-4.65,1.7q-2.249,1.7-2.25,6.7V94.8a2.486,2.486,0,0,0,1.4,2.15,18.682,18.682,0,0,0,3.9,1.651,9.609,9.609,0,0,1,1.7.6,1.034,1.034,0,0,1,.6,1q0,1.1-2,1.1A30.819,30.819,0,0,1,801.45,101.05Zm-248.7,0a27.285,27.285,0,0,0-4.15-.25q-1.7,0-2.75.1t-2.2.25a25.71,25.71,0,0,1-3.15.15,3.484,3.484,0,0,1-1.5-.25.876.876,0,0,1-.5-.851,1.017,1.017,0,0,1,.6-1.049,14.528,14.528,0,0,1,1.7-.55,6.2,6.2,0,0,0,2.85-1.451,3.193,3.193,0,0,0,.95-2.35V73.3a12.607,12.607,0,0,0-.8-4.7,4.126,4.126,0,0,0-3.3-2.5,1.256,1.256,0,0,1-.7-.5,1.332,1.332,0,0,1-.3-.8,1.087,1.087,0,0,1,.9-1.2,29.914,29.914,0,0,0,5.45-2.35Q548.7,59.7,550.3,58.7a6.518,6.518,0,0,1,.95-.55,1.52,1.52,0,0,1,.55-.15q.5,0,.5.7,0,.3-.05,1.5t-.1,2.8q-.05,1.6-.15,3.2a.177.177,0,0,0,.2.2,20.746,20.746,0,0,1,3.55-3.5,19.3,19.3,0,0,1,4-2.4,9.822,9.822,0,0,1,3.95-.9,6.106,6.106,0,0,1,3.451.9,2.682,2.682,0,0,1,1.35,2.3,5.326,5.326,0,0,1-.551,2.2,7.153,7.153,0,0,1-1.45,2.1,2.677,2.677,0,0,1-1.9.9,3.886,3.886,0,0,1-1.3-.25,13.648,13.648,0,0,1-1.5-.65l-1.6-.6a4.529,4.529,0,0,0-1.6-.3,7.63,7.63,0,0,0-4.65,1.7q-2.25,1.7-2.25,6.7V94.8a2.484,2.484,0,0,0,1.4,2.15A18.682,18.682,0,0,0,557,98.6a9.634,9.634,0,0,1,1.7.6,1.034,1.034,0,0,1,.6,1q0,1.1-2,1.1A30.813,30.813,0,0,1,552.75,101.05ZM610.5,57.3a1.053,1.053,0,0,1,.35-.751,1.808,1.808,0,0,1,1.05-.45,17.093,17.093,0,0,0,4.4-1.7,10.42,10.42,0,0,0,3.7-3.45,10.168,10.168,0,0,0,1.5-5.75,4.959,4.959,0,0,0-1.1-2.75,3.588,3.588,0,0,0-2.8-1.651,5.535,5.535,0,0,1-3.45-1.4,3.765,3.765,0,0,1-1.25-2.8,4.028,4.028,0,0,1,1.65-3.3A6.041,6.041,0,0,1,618.4,32a7.489,7.489,0,0,1,5.95,2.75,10.32,10.32,0,0,1,2.35,6.95,15.314,15.314,0,0,1-1.5,6.85,18.449,18.449,0,0,1-3.8,5.251,19.031,19.031,0,0,1-4.749,3.4,10.126,10.126,0,0,1-4.351,1.2Q610.5,58.4,610.5,57.3Zm348.75-9.35A4.829,4.829,0,0,1,957.8,44.4a4.949,4.949,0,0,1,1.45-3.649A4.829,4.829,0,0,1,962.8,39.3a4.957,4.957,0,0,1,5.1,5.1,4.828,4.828,0,0,1-1.45,3.551A4.949,4.949,0,0,1,962.8,49.4,4.829,4.829,0,0,1,959.25,47.95Z" transform="translate(0 -30.4)" fill="url(#radial-gradient)"/>
</svg>
